<svg width="16" height="16" viewBox="0 0 16 16" fill="none" xmlns="http://www.w3.org/2000/svg"><g clip-path="url(#clip0_1616_78)"><path d="M2.68652 10.2686L4.71777 8.25195H7.75586L4.96973 11.0566H4.23047L7.75586 14.6182H4.71777L2.68652 12.6006V14.6182H1.66406L0.0107422 12.9629V8.25195H2.68652V10.2686Z" fill="white"/><path fill-rule="evenodd" clip-rule="evenodd" d="M16.0039 10.6631L12.0996 14.6016L8.53418 14.6123L5.36621 11.4473L8.53418 8.25879H13.5898L16.0039 10.6631ZM8.41895 11.4473L9.91895 12.9424L10.7334 12.9189L12.9502 10.6641L12.2041 9.92969H9.91895L8.41895 11.4473Z" fill="white"/><path d="M11.0498 3.01855L12.7148 1.38184H15.7529L12.3838 4.76953L14.0049 6.73926L13.376 5.35254L15.7529 7.74805H12.7148L11.0732 6.1123L9.40918 7.74805H0.262695L4.57617 3.41504L4.21387 3.05273L3.08105 4.18652H0.0107422L2.78223 1.39941L5.59277 1.38867L7.62891 3.41504L4.98535 6.10938H6.51172L7.26367 6.83203L9.70508 4.36523L8.11816 2.42188L8.71582 3.74609L6.37109 1.38184H9.40918L11.0498 3.01855Z" fill="white"/></g><defs><clipPath id="clip0_1616_78"><rect width="16" height="16" fill="white"/></clipPath></defs></svg>