<svg width="16" height="16" viewBox="0 0 16 16" fill="none" xmlns="http://www.w3.org/2000/svg"><path d="M13.8691 8.34668C14.127 8.34669 14.3839 8.37569 14.6338 8.43164C14.8318 8.47664 15.0253 8.55692 15.1943 8.66992C15.3392 8.76187 15.472 8.87893 15.585 9.00781C15.6637 9.11059 15.7313 9.22036 15.7871 9.33496L15.8369 9.45117C15.8809 9.60414 15.922 9.75719 15.958 9.91016C15.978 10.0711 15.9862 10.2364 15.9902 10.4014V10.6064C15.9902 10.7992 15.9744 10.9929 15.9385 11.1816C15.9065 11.3756 15.8419 11.5652 15.7529 11.7422C15.6559 11.9271 15.5309 12.0924 15.3779 12.2334C15.197 12.3863 14.9915 12.4993 14.7656 12.5713C14.4718 12.6642 14.17 12.708 13.8643 12.708H11.8594V11.6572H13.7803C14.5971 11.6571 15.0039 11.2815 15.0039 10.5166V10.4854C15.0039 9.75743 14.5931 9.38192 13.7803 9.38184H12.8145V10.707L11.8643 11.6406V8.34668H13.8691Z" fill="white"/><path d="M3.11719 9.35059H0.943359V9.99512H3.06543V10.9824H0.943359V12.6973H0.0078125V8.36426H3.11719V9.35059Z" fill="white"/><path d="M4.41016 8.73926L3.49219 9.67285H4.40625V12.6973H3.47168V8.36426H4.41016V8.73926Z" fill="white"/><path d="M8.0752 8.85938L7.58301 9.33496H5.81543V9.97949H8.02246V10.9824H5.81543V11.6943H8.10742V12.6973H4.88086V8.34766H8.0752V8.85938Z" fill="white"/><path d="M9.46777 11.6221H11.5742V12.6934H8.53418V8.36426H9.46777V11.6221Z" fill="white"/><path d="M8.54395 6.02637V3.29102H9.47949V6.70605L8.54395 7.63965L6.50684 4.76855V7.63965H5.57227V3.29102H6.62402L8.54395 6.02637Z" fill="white"/><path fill-rule="evenodd" clip-rule="evenodd" d="M11.9541 3.29199C12.212 3.288 12.4688 3.31238 12.7188 3.36035C12.9167 3.41335 13.1063 3.49266 13.2793 3.59766C13.4283 3.69365 13.5609 3.81507 13.6699 3.95605C13.7829 4.07702 13.8718 4.22197 13.9238 4.37891C13.9808 4.52786 14.0209 4.68094 14.0449 4.83789L14.0439 4.83887C14.0719 5.00773 14.0841 5.18074 14.0762 5.34961V5.51855C14.0762 5.71945 14.0599 5.90982 14.0439 6.09473C14.0079 6.29273 13.9398 6.48237 13.8428 6.65137C13.7538 6.84422 13.6247 7.0212 13.4678 7.16211C13.2869 7.31096 13.0773 7.42039 12.8564 7.48438C12.5665 7.58536 12.2601 7.63308 11.9541 7.62109H9.94922V3.29199H11.9541ZM10.9043 5.65234L9.96973 6.58594H11.8906C12.6876 6.58594 13.0947 6.21482 13.0947 5.46582V5.43066C13.0946 4.6859 12.6875 4.31055 11.8906 4.31055H10.9043V5.65234Z" fill="white"/><path d="M5.11328 3.7832L4.62207 4.27441H2.85449V4.90234H5.04492V5.90527H2.85449V6.61816H5.14648V7.62012H1.91992V3.29102H5.11328V3.7832Z" fill="white"/></svg>