<svg width="16" height="16" viewBox="0 0 16 16" fill="none" xmlns="http://www.w3.org/2000/svg"><g clip-path="url(#clip0_1407_97)"><path fill-rule="evenodd" clip-rule="evenodd" d="M8 0C12.4183 0 16 3.58172 16 8C16 12.4183 12.4183 16 8 16C3.58172 16 0 12.4183 0 8C0 3.58172 3.58172 0 8 0ZM8 2.5C7.59819 2.5 7.23612 2.74334 7.08398 3.11523L4.06647 10.4911C3.45547 11.9845 3.76806 13.8059 5.25191 14.4399C6.0956 14.8004 7.02449 15 8 15C8.97522 15 9.90373 14.8004 10.7471 14.44C12.2309 13.8059 12.5436 11.9845 11.9328 10.4909L8.91602 3.11523C8.76388 2.74334 8.40181 2.5 8 2.5ZM8 1C4.13401 1 1 4.13401 1 8C1 8.89021 1.16655 9.74135 1.46989 10.5244C1.75315 11.2556 2.71119 11.161 3.00815 10.4352L6.1582 2.73633C6.46409 1.98861 7.19214 1.5 8 1.5C8.80786 1.5 9.53591 1.98861 9.8418 2.73633L12.991 10.4351C13.2879 11.1609 14.246 11.2557 14.5295 10.5246C14.8332 9.74154 15 8.8904 15 8C15 4.13401 11.866 1 8 1Z" fill="white"/></g><defs><clipPath id="clip0_1407_97"><rect width="16" height="16" fill="white"/></clipPath></defs></svg>