<svg width="16" height="16" viewBox="0 0 16 16" fill="none" xmlns="http://www.w3.org/2000/svg"><path d="M16 8.12123H15.0301C14.966 11.9081 11.9081 14.966 8.12122 15.0301V16C12.4438 15.9358 15.9358 12.4438 16 8.12123Z" fill="white"/><path d="M7.87877 16V15.0301C4.09186 14.966 1.03395 11.9081 0.96993 8.12123H0C0.0642016 12.4438 3.55623 15.9358 7.87877 16Z" fill="white"/><path d="M16 7.87877C15.9358 3.55623 12.4438 0.0642016 8.12123 0V0.96993C11.9081 1.03395 14.966 4.09186 15.0301 7.87877H16Z" fill="white"/><path d="M7.87877 2.82087e-10C3.55623 0.0642016 0.0642016 3.55623 2.82087e-10 7.87877H0.96993C1.03395 4.09186 4.09186 1.03395 7.87877 0.96993V2.82087e-10Z" fill="white"/><path d="M5.80749 10.0211L3.81278 12.0158C3.42929 12.3993 2.79929 12.3969 2.48286 11.9565C1.70455 10.8731 1.23746 9.55105 1.21242 8.12123H3.04632C3.42817 8.4508 4.55469 9.38128 5.80749 10.0211Z" fill="white"/><path d="M7.87877 14.7876C6.44894 14.7625 5.12691 14.2955 4.04351 13.5171C3.60305 13.2007 3.60073 12.5707 3.98422 12.1872L6.03715 10.1343C6.6538 10.4271 7.2915 10.6381 7.87877 10.6642V14.7876Z" fill="white"/><path d="M3.04632 7.87877H1.21242C1.23746 6.44894 1.70455 5.12691 2.48286 4.04351C2.79929 3.60305 3.42929 3.60073 3.81278 3.98422L5.80749 5.97893C4.55469 6.61872 3.42817 7.5492 3.04632 7.87877Z" fill="white"/><path d="M7.87877 1.21242C6.44894 1.23746 5.12691 1.70455 4.04351 2.48286C3.60305 2.79929 3.60073 3.42929 3.98422 3.81278L6.03715 5.86571C6.6538 5.57287 7.29151 5.36186 7.87877 5.33576V1.21242Z" fill="white"/><path d="M8.12123 5.33576V1.21242C9.55105 1.23746 10.8731 1.70455 11.9565 2.48286C12.397 2.79929 12.3993 3.42929 12.0158 3.81278L9.96285 5.86571C9.3462 5.57287 8.70849 5.36186 8.12123 5.33576Z" fill="white"/><path d="M10.1925 5.97893L12.1872 3.98422C12.5707 3.60073 13.2007 3.60305 13.5171 4.04351C14.2955 5.12691 14.7625 6.44894 14.7876 7.87877H12.9537C12.5718 7.5492 11.4453 6.61872 10.1925 5.97893Z" fill="white"/><path d="M12.9537 8.12123H14.7876C14.7625 9.55105 14.2955 10.8731 13.5171 11.9565C13.2007 12.397 12.5707 12.3993 12.1872 12.0158L10.1925 10.0211C11.4453 9.38128 12.5718 8.4508 12.9537 8.12123Z" fill="white"/><path d="M8.12122 14.7876C9.55105 14.7625 10.8731 14.2955 11.9565 13.5171C12.397 13.2007 12.3993 12.5707 12.0158 12.1872L9.96285 10.1343C9.3462 10.4271 8.70849 10.6381 8.12122 10.6642V14.7876Z" fill="white"/><path fill-rule="evenodd" clip-rule="evenodd" d="M9.879 8C9.879 9.03774 9.03774 9.879 8 9.879C6.96226 9.879 6.121 9.03774 6.121 8C6.121 6.96226 6.96226 6.121 8 6.121C9.03774 6.121 9.879 6.96226 9.879 8ZM8 9.15164C8.63603 9.15164 9.15164 8.63603 9.15164 8C9.15164 7.36396 8.63603 6.84835 8 6.84835C7.36396 6.84835 6.84835 7.36396 6.84835 8C6.84835 8.63603 7.36396 9.15164 8 9.15164Z" fill="white"/></svg>