<svg width="24" height="24" viewBox="0 0 24 24" fill="none" xmlns="http://www.w3.org/2000/svg"><path fill-rule="evenodd" clip-rule="evenodd" d="M0 7.99866C0 7.4465 0.446704 6.99888 0.997741 6.99888H5.98644V2.99978C5.98644 2.44762 6.43315 2 6.98418 2H12.9706C13.5217 2 13.9684 2.44762 13.9684 2.99978V5.18821L18.8166 4.19891C19.3566 4.08873 19.8834 4.43803 19.9934 4.97908L21.984 14.7742L21.9843 14.7758L21.9846 14.7774L22.9797 19.6741C23.0897 20.2152 22.7411 20.7431 22.2012 20.8533L16.4705 21.976C15.9306 22.0862 15.2683 21.8112 15.1583 21.2701L13.9684 15.4146V20.9958C13.9684 21.5479 13.5217 21.9955 12.9706 21.9955H0.997741C0.446704 21.9955 0 21.5479 0 20.9958V7.99866ZM7.98192 3.99955V19.996H11.9729V3.99955H7.98192ZM5.98644 15.9969V8.99844H1.99548V15.9969H5.98644ZM1.99548 17.9964H5.98644V19.996H1.99548V17.9964ZM16.3173 16.9524L16.9146 19.8914L20.8253 19.0935L20.228 16.1545L16.3173 16.9524ZM19.8298 14.1951L15.9191 14.9931L14.3264 7.15574L18.2371 6.35775L19.8298 14.1951Z" fill="#B3B4D0"/></svg>