<svg width="16" height="16" viewBox="0 0 16 16" fill="none" xmlns="http://www.w3.org/2000/svg"><path d="M11.0964 2.0114C11.6241 1.6771 12.1334 1.35445 12.7863 1.35445C14.3434 1.35445 15.498 2.99872 14.9896 4.48489C14.7565 5.14892 14.2799 5.50729 13.729 5.87619C13.0405 6.31888 12.4473 6.83535 11.9389 7.4783C11.1974 8.41638 10.6995 9.53364 10.4665 10.6931C10.3499 11.2411 10.2758 11.9684 10.2334 12.4954C10.1169 13.6865 9.31184 14.6667 8.00892 14.6667C6.70601 14.6667 5.90096 13.6865 5.78444 12.4954C5.77605 12.4153 5.7674 12.3292 5.75832 12.2387C5.71002 11.7576 5.64947 11.1544 5.5514 10.6931C5.31836 9.53364 4.8099 8.41638 4.079 7.4783C3.57054 6.85643 2.95616 6.30834 2.28882 5.87619C1.73799 5.50729 1.26132 5.14892 1.02827 4.48489C0.477449 2.97764 1.63206 1.33337 3.21039 1.33337C3.85924 1.33337 4.35255 1.64792 4.85952 1.97118C5.08916 2.1176 5.32161 2.26581 5.57258 2.38739L5.75266 2.45063V6.58239C5.75266 7.83667 6.75897 8.85907 7.99833 8.85907C9.2165 8.85907 10.2228 7.85775 10.244 6.62455V2.47171C10.2599 2.46645 10.2764 2.46118 10.293 2.45591C10.3426 2.4401 10.3923 2.42428 10.4241 2.40847C10.6588 2.2886 10.8792 2.14901 11.0964 2.0114Z" fill="white"/><path d="M6.50475 6.62455V4.02112C6.50475 3.20953 7.17209 2.52442 7.99833 2.51388C8.82457 2.51388 9.49191 3.19899 9.49191 4.02112V6.62455C9.47073 7.44668 8.80338 8.11071 7.99833 8.11071C7.17209 8.11071 6.50475 7.44668 6.50475 6.62455Z" fill="white"/></svg>