<svg width="16" height="16" viewBox="0 0 16 16" fill="none" xmlns="http://www.w3.org/2000/svg"><path d="M13.4072 4.15706C14.241 2.28421 15.1615 0.471551 15.4616 0.110358C15.575 -0.023417 15.8151 -0.0367946 15.9285 0.0769144C16.082 0.230756 16.0153 0.518373 15.4616 2.00328C15.1615 2.80593 14.7412 4.15037 14.7412 4.29752C14.7412 4.35772 14.6212 4.846 14.4678 5.3811C14.241 6.2172 14.2076 6.39111 14.2677 6.5717C14.3344 6.7523 14.2877 6.94627 13.9008 8.1837C13.7435 8.67819 13.5889 9.1754 13.4819 9.51949L13.4814 9.52133C13.4208 9.71623 13.3755 9.86175 13.3538 9.92946C13.3005 10.1101 13.2138 10.3107 13.1671 10.3709C13.1137 10.4244 13.0737 10.5248 13.0737 10.585C13.0737 10.6452 12.9803 10.8391 12.8736 11.013C12.6535 11.3609 12.42 12.0632 12.1999 13.0397C12.0865 13.5213 11.9998 13.7421 11.8397 13.9427C11.7196 14.0899 11.5929 14.3106 11.5462 14.4377C11.4395 14.7721 11.1526 15.1133 10.9926 15.1133C10.8325 15.1133 10.6057 14.9327 10.6057 14.8056C10.6057 14.7454 10.2655 13.6217 9.97201 12.7254C9.95867 12.6852 10.1588 12.5247 10.4122 12.3709C10.6657 12.217 11.0993 11.8759 11.3728 11.6083C12.2132 10.7722 12.6268 9.99635 12.9469 8.64522C13.0537 8.1837 13.1871 7.69542 13.2404 7.56833C13.3938 7.20045 13.3605 6.83925 13.1004 6.0968L12.8536 5.40786L13.4072 4.15706Z" fill="white"/><path d="M0 1.90295C0 1.6354 0.173426 1.56851 0.993867 1.52838C1.78096 1.48155 1.9277 1.48824 3.10167 1.59526C3.6086 1.64209 9.21161 1.6354 9.73856 1.58857C10.1454 1.55513 10.6724 1.61533 10.7658 1.70897C10.9392 1.88288 10.8925 1.9899 10.4123 2.49156C10.1655 2.75911 9.92533 3.04673 9.87864 3.12699C9.79859 3.27414 9.77858 3.27414 8.21107 3.27414H6.61689L6.17665 2.79924C5.73641 2.31765 5.73641 2.31765 5.58967 2.44474C5.20279 2.78586 5.09607 2.89957 4.98935 3.0601L4.87595 3.23401L3.48854 3.21394C2.13448 3.20057 2.09446 3.19388 1.93437 3.04004C1.84099 2.95308 1.40742 2.72567 0.967186 2.53169C0.0333512 2.12368 0 2.10361 0 1.90295Z" fill="white"/><path d="M9.01817 9.76224C8.8781 9.76224 7.89757 6.76568 7.69079 5.72892C7.65744 5.5617 7.67078 5.54832 7.85755 5.54832C7.97094 5.54832 8.29111 5.58177 8.57127 5.6219C8.98482 5.6821 9.07153 5.72223 9.07153 5.82256C9.07153 5.88945 9.13157 6.04329 9.19827 6.16369C9.27164 6.28409 9.38504 6.65197 9.44507 6.97303C9.53845 7.45462 9.54512 7.60846 9.48509 7.78237C9.4384 7.90277 9.37169 8.23721 9.33834 8.53151C9.26497 9.12012 9.09822 9.76224 9.01817 9.76224Z" fill="white"/><path fill-rule="evenodd" clip-rule="evenodd" d="M1.40075 3.94302L1.254 3.97646L1.41409 4.11693C1.56083 4.2507 3.09499 5.28746 3.61527 5.60183C3.74867 5.68879 4.02882 5.78243 4.24227 5.81587C4.44905 5.84932 4.63582 5.89614 4.65583 5.90951C4.67584 5.92958 4.56244 6.08342 4.40903 6.25064C4.25561 6.41786 4.1022 6.6319 4.06884 6.72554C4.02882 6.81919 4.00214 7.26064 4.00214 7.70879C4.00214 8.35091 4.02215 8.56495 4.10887 8.67866C4.20225 8.81913 4.20225 8.84588 4.1022 8.99972C4.00881 9.14019 4.00214 9.3141 4.02882 10.1167C4.03193 10.1977 4.03503 10.2795 4.03811 10.3607C4.05488 10.8031 4.07092 11.2263 4.08219 11.3675C4.09247 11.5222 4.09747 11.5974 4.0637 11.6448C4.03175 11.6897 3.9651 11.7098 3.83539 11.7488C2.6881 12.0766 2.33458 12.2103 2.08111 12.3909L1.78762 12.605L2.01441 12.6585C2.34125 12.7521 4.30897 12.6785 4.43571 12.5715C4.52242 12.4979 4.56911 12.4979 4.70252 12.5715C5.02936 12.7454 7.78417 12.5314 8.73802 12.2572C10.6724 11.6953 11.8063 10.4244 12.2732 8.27065C12.3466 7.92952 12.46 7.51482 12.52 7.3476L12.6268 7.03323L12.2866 6.05667C11.8597 4.83931 11.853 4.70554 12.2065 4.38448C12.3533 4.2507 12.4734 4.11693 12.4734 4.08348C12.4734 4.05004 12.0731 4.00322 11.5929 3.98315C10.4856 3.92964 1.59418 3.8962 1.40075 3.94302ZM7.10381 4.81256C8.43119 4.86607 9.69186 5.01322 9.96534 5.16037C10.0787 5.22057 10.0721 5.23395 9.91198 5.40786L9.73188 5.59514L9.86529 5.82256C10.2121 6.41786 10.2788 7.43455 10.0521 8.79237C9.82527 10.1368 9.49843 10.712 8.77137 11.0666C8.38449 11.2605 7.62409 11.3609 6.5235 11.3675H5.93651V9.40105L6.48347 8.83919L6.19665 8.52482L5.90983 8.21714L5.86314 7.50144C5.83646 7.1068 5.80978 6.62521 5.80978 6.43124L5.80311 6.08342H6.20332C6.4768 6.08342 6.60354 6.05667 6.60354 5.99647C6.60354 5.95634 6.35007 5.66872 6.03657 5.37441C5.72307 5.07342 5.4696 4.81925 5.4696 4.79918C5.4696 4.75905 5.52296 4.75905 7.10381 4.81256Z" fill="white"/><path d="M2.22119 6.12355C2.2412 6.41117 2.33458 6.95296 2.42129 7.32084C2.51468 7.68872 2.6881 8.70542 2.80817 9.58165C3.0016 10.9796 3.0483 11.1669 3.14835 11.1535C3.2484 11.1334 3.26174 10.9863 3.29509 9.7288C3.31511 8.9529 3.33512 7.87601 3.34179 7.33422L3.34846 6.33759L2.86153 6.02322C2.71162 5.92789 2.56571 5.83457 2.45568 5.76419C2.36498 5.70618 2.29866 5.66376 2.27455 5.64865C2.1945 5.60183 2.18783 5.67541 2.22119 6.12355Z" fill="white"/><path d="M3.28843 13.3809L3.92877 13.3608C4.42237 13.3474 4.57578 13.3608 4.58912 13.4277C4.63582 13.6083 4.24227 15.5346 4.13555 15.6684C3.96879 15.8691 3.70198 15.7821 3.6086 15.5012C3.50854 15.1735 3.34179 14.1969 3.31511 13.7621L3.28843 13.3809Z" fill="white"/></svg>