<svg width="16" height="16" viewBox="0 0 16 16" fill="none" xmlns="http://www.w3.org/2000/svg"><g clip-path="url(#clip0_1120_7)"><path d="M12.999 11.284C12.999 10.395 12.95 9.54997 13.011 8.71297C13.085 7.70197 12.944 6.68497 13.125 5.67697C13.194 5.29497 12.894 4.96697 12.896 4.56097C12.9 3.84397 12.942 3.12297 12.81 2.40597C12.666 1.61897 12.473 1.42097 11.676 1.36597C11.571 1.35897 11.464 1.37097 11.359 1.36297C11.216 1.35197 11.055 1.33097 11.046 1.14997C11.035 0.946971 11.196 0.890971 11.364 0.872971C11.486 0.859971 11.611 0.857971 11.734 0.861971C12.91 0.897971 14.086 1.00297 15.263 0.859971C15.434 0.838971 15.615 0.867971 15.788 0.893971C15.892 0.909971 15.994 0.966971 15.999 1.09397C16.005 1.21497 15.923 1.28697 15.822 1.32997C15.758 1.35697 15.687 1.36797 15.618 1.37997C14.538 1.56097 14.423 1.68097 14.416 2.79997C14.405 4.64497 14.41 6.49097 14.416 8.33597C14.417 8.84897 14.361 9.33897 14.174 9.82997C13.991 10.311 14.307 10.78 14.354 11.263C14.472 12.458 14.398 13.649 14.367 14.842C14.359 15.144 14.194 15.333 13.859 15.319C13.6 15.308 13.337 15.368 13.079 15.287C13.089 15.246 13.086 15.205 13.105 15.188C13.229 15.074 13.467 15.264 13.528 15.077C13.593 14.879 13.368 14.784 13.251 14.667C11.901 13.308 10.532 11.968 9.242 10.551C9.087 10.381 8.952 10.216 8.871 9.98797C8.728 9.58297 7.68 9.01997 7.01 8.94997C7.072 8.82797 7.189 8.88697 7.277 8.86597C7.396 8.83697 7.548 8.84897 7.594 8.71697C7.641 8.57797 7.508 8.49397 7.416 8.41997C6.685 7.83397 6.147 7.03097 5.317 6.55597C5.245 6.51497 5.158 6.45297 5.135 6.38297C4.98 5.89897 4.636 5.79197 4.18 5.86997C4.057 5.89097 3.936 5.85597 3.811 5.73997C3.915 5.58597 4.246 5.77197 4.22 5.56797C4.18 5.25797 3.862 5.11997 3.646 4.89897C3.173 5.35997 3.462 5.90197 3.484 6.37997C3.551 7.86697 3.722 9.34697 3.668 10.842C3.635 11.753 3.692 12.668 3.741 13.58C3.775 14.206 4.246 14.633 4.879 14.68C5.138 14.699 5.519 14.667 5.526 14.972C5.533 15.308 5.135 15.188 4.926 15.192C3.465 15.217 2.004 15.213 0.543 15.215C0.345 15.215 0.111 15.202 0.11 14.944C0.109 14.711 0.353 14.722 0.514 14.692C1.516 14.507 1.717 14.272 1.769 13.157C1.807 12.334 1.838 11.51 1.86 10.686C1.866 10.471 1.891 10.26 1.984 10.072C2.087 9.86297 2.105 9.68497 1.97 9.48097C1.908 9.38697 1.871 9.23897 1.895 9.13197C2.124 8.12797 1.72 7.09897 2.019 6.09997C2.107 5.80697 1.888 5.81697 1.723 5.80397C1.151 5.75997 0.577 5.72997 0 5.64497C0.6 5.61697 1.196 5.57897 1.788 5.49297C2.019 5.45897 2.244 5.50097 1.94 5.21397C1.902 5.17797 1.838 5.11997 1.897 5.09997C2.509 4.89597 2.023 4.56097 2.013 4.27497C1.976 3.18597 2.027 2.09797 2.13 1.01397C2.165 0.643971 2.409 0.560971 2.678 0.815971C3.315 1.41897 3.944 2.03297 4.553 2.66497C6.335 4.51197 8.104 6.37097 9.881 8.22397C10.744 9.12397 11.61 10.022 12.478 10.917C12.609 11.052 12.722 11.216 12.999 11.285V11.284Z" fill="white"/></g><defs><clipPath id="clip0_1120_7"><rect width="16" height="16" fill="white"/></clipPath></defs></svg>