<svg width="16" height="16" viewBox="0 0 16 16" fill="none" xmlns="http://www.w3.org/2000/svg"><path d="M3 5C3 4.44772 3.44772 4 4 4H6C6.55228 4 7 3.55228 7 3C7 2.44772 6.55228 2 6 2H4C2.34315 2 1 3.34315 1 5V12C1 13.6569 2.34315 15 4 15H11C12.6569 15 14 13.6569 14 12V10C14 9.44771 13.5523 9 13 9C12.4477 9 12 9.44771 12 10V12C12 12.5523 11.5523 13 11 13H4C3.44772 13 3 12.5523 3 12V5Z" fill="white"/><path d="M10 1C9.44772 1 9 1.44772 9 2C9 2.55228 9.44772 3 10 3H11.5858L6.29289 8.29289C5.90237 8.68342 5.90237 9.31658 6.29289 9.70711C6.68342 10.0976 7.31658 10.0976 7.70711 9.70711L13 4.41421V6C13 6.55228 13.4477 7 14 7C14.5523 7 15 6.55228 15 6V2C15 1.44772 14.5523 1 14 1H10Z" fill="white"/></svg>