<svg width="24" height="24" viewBox="0 0 24 24" fill="none" xmlns="http://www.w3.org/2000/svg"><path fill-rule="evenodd" clip-rule="evenodd" d="M3 4C3 2.89543 3.89543 2 5 2H19C20.1046 2 21 2.89543 21 4V20C21 21.1046 20.1046 22 19 22H5C3.89543 22 3 21.1046 3 20V4ZM6 20C5.44772 20 5 19.5523 5 19C5 18.4477 5.44772 18 6 18H19V20H6ZM19 16H6C5.64936 16 5.31278 16.0602 5 16.1707V4H7V11C7 11.3688 7.20298 11.7077 7.52814 11.8817C7.8533 12.0557 8.24784 12.0366 8.5547 11.8321L11 10.2019L13.4453 11.8321C13.7522 12.0366 14.1467 12.0557 14.4719 11.8817C14.797 11.7077 15 11.3688 15 11V4L19 4V16ZM13 9.13148V4H9V9.13148L9.8906 8.53775C10.5624 8.08988 11.4376 8.08988 12.1094 8.53775L13 9.13148Z" fill="#B3B4D0"/></svg>