<svg width="16" height="16" viewBox="0 0 16 16" fill="none" xmlns="http://www.w3.org/2000/svg"><path fill-rule="evenodd" clip-rule="evenodd" d="M13.002 8.00826C13.002 5.58437 11.2573 3.57548 9.00001 3.25367V1.86529C11.9973 2.19173 14.3333 4.81782 14.3333 8.00826C14.3333 9.67352 13.4933 11.1167 13.4933 11.1167H11.8947C12.6141 10.238 13.0057 9.1399 13.002 8.00826ZM3.66667 13.0992C2.43267 11.917 1.66667 10.2802 1.66667 8.47348C1.66667 6.6668 2.43267 5.03259 3.66667 3.84775V6.36546C3.35173 7.02443 3.18781 7.74431 3.18667 8.47348C3.18667 9.22416 3.36134 9.93785 3.66667 10.5815V13.0992ZM3.66667 14.4208L4.77534 13.088V2.54263L3.66667 1.20447H7.69067V12.2666H14.3333L12.8487 14.4182L3.66667 14.4208Z" fill="white"/></svg>