<svg width="16" height="16" viewBox="0 0 16 16" fill="none" xmlns="http://www.w3.org/2000/svg"><path d="M7.1 8.50002H7.6C8.49544 8.52801 9.27343 8.55599 9.92959 8.57959C11.6183 8.64033 12.5 8.67204 12.5 8.60003C12.5 8.60003 9.4 4.70002 8.5 3.70002L8.3 3.40002H1.6C1.6 3.40002 3.2 4.30002 5.2 5.40002C7.2 6.50002 8.7 7.40002 8.7 7.40002C8.7 7.40002 7.5 7.40002 6.1 7.30002H3.4C3.4 7.30002 4.4 8.50002 5.6 10L7.8 12.7H14.4C14.4 12.7 12.7 11.8 10.8 10.7C8.9 9.60002 7.1 8.50002 7.1 8.50002Z" fill="white"/><path d="M16 4.5C16 4.5 15.3 4.8 14.5 5.2C13.7 5.6 12.8 6 12.4 6.1C12.1 6.2 11.8 6.4 11.9 6.4C11.9 6.4 12.4 6.3 13 6.2C13.6 6.1 14.1 6 14.1 6C14.1 6 13.4 9.5 13.3 9.6C13.3 9.6 12.2 9.5 11.5 9.4H11.4C11.4 9.4 11.9 9.7 12.5 9.9C13.1 10.2 13.7 10.5 14 10.6C14.3 10.7 14.5 10.8 14.5 10.8C14.5 10.8 14.7 10.3 14.8 9.5C15.3 7.6 16 4.7 16 4.5Z" fill="white"/><path d="M2.2 8.1C2 9.1 1.8 9.9 1.8 9.9C1.8 9.9 2.3 9.9 2.9 9.7C3.5 9.7 4 9.6 4 9.6L3.2 10C1.7 10.7 0.1 11.4 0 11.4C0 11.4 0 11.2 0.3 10.1C0.357584 9.69691 0.514644 9.02856 0.67571 8.34315C0.794352 7.83828 0.915167 7.32416 1 6.9C1.3 5.3 1.4 5 1.5 5C1.55 5 2.3 5.35 3.05 5.7C3.8 6.05 4.55 6.4 4.6 6.4C4.65466 6.45466 4.67944 6.47944 4.67435 6.49068C4.67012 6.5 4.64534 6.5 4.6 6.5C4.55858 6.5 4.2598 6.46569 3.90975 6.42548C3.41472 6.36863 2.81716 6.3 2.7 6.3H2.6L2.2 8.1Z" fill="white"/></svg>