<svg width="16" height="16" viewBox="0 0 16 16" fill="none" xmlns="http://www.w3.org/2000/svg"><path d="M10.63 14.06C9.75 12.42 8.89 10.82 7.98 9.13998C7.04 10.83 6.14 12.44 5.23 14.09C4.96 13.58 4.7 13.09 4.45 12.6C3.43 10.58 2.42 8.57998 1.42 6.55998C1.12 5.91998 0.789998 5.31998 0.0999985 4.99998C1.39 4.99998 2.7 4.99998 3.99 4.99998C4 5.01998 4.01 5.03998 4.03 5.05998C3.87 5.15998 3.7 5.23998 3.55 5.32998C3.16 5.55998 3.11 5.73998 3.3 6.14998C3.78 7.14998 4.25 8.17998 4.74 9.17998C5.05 9.81998 5.37 10.47 5.69 11.1C5.7 11.12 5.73 11.14 5.8 11.18C5.98 10.87 6.15 10.58 6.32 10.26C6.69 9.57998 7.05 8.90998 7.44 8.23998C7.55 8.05998 7.55 7.90998 7.45 7.73998C7.04 6.97998 6.67 6.21998 6.53 5.34998C6.42 4.60998 6.58 3.92998 6.98 3.24998C7.22 3.47998 7.46 3.65998 7.66 3.88998C7.72 3.94998 7.71 4.10998 7.68 4.21998C7.44 5.18998 7.76 6.01998 8.26 6.89998C8.77 6.13998 9.03 5.38998 8.91 4.52998C8.8 3.67998 8.29 3.02998 7.64 2.43998C7.83 2.25998 8.01 2.07998 8.21 1.92998C8.27 1.88998 8.43 1.88998 8.49 1.94998C9.54 2.81998 10.35 4.22998 9.89 5.74998C9.71 6.34998 9.43 6.92998 9.19 7.50998C9.08 7.74998 9.11 7.94998 9.23 8.16998C9.75 9.08998 10.26 10.03 10.76 10.95C10.8 11.01 10.83 11.06 10.88 11.14C10.94 11.07 10.99 11.03 11.01 10.97C11.79 9.31998 12.57 7.66998 13.33 6.00998C13.59 5.44998 13.45 5.24998 12.86 5.09998C12.76 5.07998 12.69 5.02998 12.62 4.92998C13.68 4.92998 14.72 4.92998 15.88 4.92998C15.73 5.00998 15.65 5.08998 15.55 5.10998C15.07 5.27998 14.75 5.61998 14.53 6.04998C13.45 8.23998 12.37 10.43 11.29 12.62C11.12 13.15 10.87 13.59 10.63 14.06Z" fill="white"/></svg>