<svg width="16" height="16" viewBox="0 0 16 16" fill="none" xmlns="http://www.w3.org/2000/svg"><path d="M4.121 9.99397C4.091 10.012 3.943 10.032 3.93 9.95197C3.927 9.93297 3.942 9.89397 3.965 9.88097L5.291 9.11497C5.307 9.10597 5.354 9.11197 5.367 9.12297C5.408 9.15797 5.393 9.25997 5.367 9.27597L4.124 9.99397H4.121Z" fill="white"/><path d="M0.655 9.99399C0.623 10.012 0.477 10.03 0.464 9.95099C0.461 9.93199 0.476 9.89399 0.499 9.88099L1.707 9.18299C1.723 9.17399 1.764 9.17799 1.779 9.18599C1.823 9.21199 1.818 9.32199 1.778 9.34599L0.655 9.99399Z" fill="white"/><path d="M15.143 7.72797L13.477 7.73497C13.44 7.73497 13.406 7.69897 13.406 7.66597V6.90397C13.406 6.86097 13.442 6.83097 13.487 6.83097L15.02 6.82797C15.139 6.82797 15.241 6.78397 15.319 6.70197C15.343 6.67697 15.404 6.65997 15.428 6.69297L15.848 7.26397C15.862 7.28297 15.871 7.33797 15.853 7.35597C15.751 7.45997 15.653 7.55697 15.52 7.62297C15.409 7.67797 15.281 7.72697 15.143 7.72797Z" fill="white"/><path d="M15.905 9.85398H14.55C14.517 9.85398 14.486 9.83298 14.48 9.80998C14.473 9.78498 14.481 9.74398 14.508 9.72898L15.872 8.94098C15.89 8.93098 15.931 8.93098 15.945 8.93998C15.959 8.94898 15.979 8.97798 15.979 8.99798V9.78198C15.979 9.81598 15.951 9.85498 15.906 9.85498L15.905 9.85398Z" fill="white"/><path d="M8.235 9.99605C8.211 10.0101 8.061 10.0291 8.048 9.95305C8.045 9.93505 8.059 9.89505 8.078 9.88405L9.281 9.18905C9.31 9.17205 9.355 9.17305 9.375 9.19705C9.398 9.22505 9.411 9.31405 9.371 9.33905L8.236 9.99605H8.235Z" fill="white"/><path d="M4.657 11.306H4.487L4.169 10.83L4.165 11.303H4.09V10.542H4.233L4.578 11.056L4.582 10.545C4.601 10.542 4.634 10.543 4.657 10.545V11.306Z" fill="white"/><path d="M0.699999 11.307H0.529999L0.210999 10.828L0.206999 11.304H0.132999V10.542L0.275999 10.54L0.620999 11.056L0.624999 10.545C0.645999 10.543 0.676999 10.542 0.699999 10.544V11.307Z" fill="white"/><path d="M15.06 11.145C15.018 11.332 14.759 11.361 14.605 11.291C14.514 11.25 14.486 11.15 14.504 11.056L14.604 11.037C14.6 11.105 14.581 11.171 14.631 11.221C14.687 11.278 14.789 11.284 14.858 11.24C14.882 11.225 14.896 11.172 14.89 11.149C14.883 11.124 14.854 11.084 14.828 11.072L14.642 10.982C14.503 10.914 14.461 10.728 14.561 10.61C14.629 10.53 14.736 10.518 14.835 10.526C14.959 10.537 15.043 10.622 15.033 10.753L14.934 10.772C14.94 10.706 14.941 10.654 14.897 10.618C14.825 10.56 14.666 10.567 14.648 10.656C14.632 10.734 14.732 10.773 14.793 10.796C14.959 10.859 15.103 10.953 15.06 11.146V11.145Z" fill="white"/><path d="M15.829 11.141C15.787 11.326 15.552 11.355 15.396 11.3C15.292 11.264 15.251 11.161 15.272 11.055L15.374 11.035C15.365 11.111 15.351 11.174 15.403 11.223C15.459 11.276 15.556 11.28 15.625 11.24C15.649 11.226 15.663 11.178 15.659 11.154C15.655 11.13 15.627 11.086 15.601 11.073L15.416 10.983C15.275 10.915 15.229 10.73 15.328 10.61C15.396 10.529 15.501 10.517 15.6 10.524C15.728 10.533 15.816 10.628 15.8 10.755L15.703 10.768C15.709 10.706 15.711 10.65 15.664 10.615C15.588 10.558 15.423 10.568 15.417 10.662C15.412 10.739 15.504 10.773 15.569 10.798C15.729 10.859 15.872 10.956 15.83 11.142L15.829 11.141Z" fill="white"/><path d="M6.975 11.152C6.927 11.334 6.674 11.357 6.525 11.292C6.432 11.251 6.404 11.155 6.419 11.057L6.522 11.036C6.513 11.104 6.502 11.165 6.543 11.217C6.58 11.264 6.65 11.271 6.708 11.265C6.758 11.261 6.798 11.229 6.806 11.186C6.814 11.143 6.788 11.093 6.745 11.072L6.569 10.987C6.428 10.919 6.376 10.735 6.476 10.614C6.545 10.531 6.655 10.518 6.757 10.527C6.879 10.539 6.963 10.627 6.95 10.756L6.853 10.772C6.857 10.712 6.861 10.651 6.81 10.615C6.733 10.561 6.571 10.572 6.565 10.665C6.56 10.742 6.657 10.777 6.722 10.802C6.887 10.864 7.025 10.967 6.976 11.154L6.975 11.152Z" fill="white"/><path d="M6.198 11.152C6.148 11.338 5.887 11.358 5.741 11.288C5.653 11.245 5.629 11.151 5.643 11.057L5.746 11.035C5.737 11.103 5.726 11.164 5.767 11.215C5.805 11.263 5.874 11.269 5.932 11.264C5.983 11.26 6.022 11.228 6.03 11.185C6.038 11.142 6.012 11.092 5.969 11.071L5.792 10.985C5.651 10.917 5.599 10.734 5.699 10.612C5.768 10.528 5.878 10.515 5.981 10.525C6.103 10.537 6.186 10.625 6.173 10.754L6.076 10.77C6.081 10.71 6.084 10.648 6.032 10.612C5.955 10.558 5.793 10.57 5.788 10.662C5.784 10.74 5.877 10.774 5.944 10.799C6.109 10.861 6.248 10.964 6.198 11.151V11.152Z" fill="white"/><path d="M13.509 11.307H13.337L13.022 10.831L13.017 11.307L12.942 11.304V10.541H13.086L13.431 11.057L13.434 10.545L13.509 10.541V11.307Z" fill="white"/><path d="M10.27 10.922L10.039 10.925V11.232L10.358 11.234L10.357 11.308L9.815 11.307V10.54H10.311L10.309 10.614L10.039 10.616L10.038 10.846L10.267 10.85L10.27 10.922Z" fill="white"/><path d="M3.855 11.3079L3.614 11.3059C3.577 11.1819 3.626 11.0129 3.555 10.9599C3.529 10.9409 3.478 10.9339 3.452 10.9469V11.3059L3.229 11.3069V10.5409L3.568 10.5389C3.623 10.5389 3.685 10.5519 3.732 10.5739C3.811 10.6109 3.849 10.6829 3.84 10.7669C3.831 10.8419 3.774 10.8939 3.68 10.9219C3.873 10.9879 3.784 11.1249 3.856 11.3069L3.855 11.3079ZM3.576 10.6359C3.542 10.6159 3.5 10.6139 3.451 10.6169V10.8719C3.505 10.8749 3.547 10.8719 3.583 10.8459C3.636 10.8069 3.634 10.6689 3.576 10.6349V10.6359Z" fill="white"/><path d="M5.373 10.923L5.146 10.924L5.145 11.232L5.465 11.234L5.464 11.308H4.923L4.922 10.54H5.418V10.615H5.146V10.848L5.373 10.849V10.923Z" fill="white"/><path d="M11.78 10.923L11.551 10.924L11.549 11.232L11.87 11.234L11.869 11.308H11.327V10.54H11.823V10.615H11.551L11.55 10.847L11.78 10.85V10.923Z" fill="white"/><path d="M1.417 10.922L1.189 10.924L1.187 11.232L1.506 11.234V11.308L0.964001 11.307V10.54H1.46V10.615L1.187 10.617V10.849L1.404 10.851C1.417 10.855 1.419 10.892 1.417 10.924V10.922Z" fill="white"/><path d="M14.229 10.922L13.996 10.925V11.232L14.316 11.234L14.315 11.308H13.774V10.54H14.269V10.615H13.996L13.997 10.848L14.221 10.849L14.229 10.922Z" fill="white"/><path d="M2.921 10.922L2.69 10.925V11.232L3.01 11.234L3.009 11.308H2.467V10.54H2.962L2.963 10.615H2.69V10.848L2.92 10.849L2.921 10.922Z" fill="white"/><path d="M12.707 11.308H12.466C12.431 11.195 12.473 11.023 12.413 10.967C12.388 10.943 12.342 10.937 12.302 10.944V11.308H12.079V10.542H12.447C12.561 10.542 12.706 10.615 12.691 10.767C12.683 10.844 12.627 10.895 12.535 10.925C12.725 10.995 12.635 11.133 12.708 11.31L12.707 11.308ZM12.423 10.633C12.387 10.613 12.328 10.606 12.302 10.626V10.863C12.33 10.881 12.386 10.875 12.422 10.855C12.491 10.818 12.489 10.669 12.423 10.632V10.633Z" fill="white"/><path d="M11.035 10.548C11.058 10.539 11.094 10.539 11.119 10.544L10.898 11.306H10.698L10.495 10.541H10.72L10.872 11.114L11.035 10.548Z" fill="white"/><path d="M2.185 10.5449C2.211 10.5399 2.242 10.5409 2.268 10.5449L2.048 11.3059H1.848L1.645 10.5409L1.869 10.5389L2.021 11.1139L2.186 10.5449H2.185Z" fill="white"/><path d="M8.062 11.305L7.826 11.307L7.825 10.616L7.639 10.613L7.64 10.54H8.249L8.25 10.614L8.061 10.617L8.062 11.305Z" fill="white"/><path d="M9.071 11.1071C9.011 11.3211 8.782 11.3611 8.608 11.2991C8.4 11.2251 8.39 10.9251 8.432 10.7501C8.484 10.5381 8.703 10.4881 8.883 10.5391C9.114 10.6041 9.122 10.9261 9.071 11.1071ZM8.844 11.1811C8.868 11.0051 8.868 10.8331 8.844 10.6631C8.837 10.6171 8.794 10.5821 8.76 10.5811C8.719 10.5801 8.676 10.6111 8.668 10.6581C8.64 10.8311 8.641 11.0081 8.666 11.1821C8.673 11.2321 8.715 11.2681 8.76 11.2661C8.794 11.2651 8.838 11.2311 8.845 11.1811H8.844Z" fill="white"/><path d="M5.388 5.06593L5.39 4.75293C5.39 4.71493 5.362 4.67493 5.321 4.67493H3.674C3.631 4.67493 3.602 4.71293 3.602 4.75193V6.05393C3.602 6.06093 3.604 6.06893 3.606 6.07793L5.388 5.06593Z" fill="white"/><path d="M1.779 9.18594C1.765 9.17794 1.724 9.17294 1.707 9.18294L0.499 9.88094C0.476 9.89394 0.461 9.93194 0.464 9.95094C0.476 10.0299 0.623 10.0119 0.655 9.99394L1.778 9.34594C1.819 9.32294 1.823 9.21294 1.779 9.18594Z" fill="white"/><path d="M1.81 8.92295V8.22695C1.81 8.22695 1.81 8.22295 1.81 8.22095L0.0689994 9.20895C0.0589994 9.21495 0.0419994 9.22595 0.0219994 9.23795V9.88095C0.0219994 9.90295 0.0429994 9.93095 0.0569994 9.93895C0.0689994 9.94595 0.106999 9.94895 0.119999 9.94195L1.767 8.99095C1.79 8.97795 1.809 8.94695 1.809 8.92295H1.81Z" fill="white"/><path d="M5.29 9.11497L3.964 9.88097C3.941 9.89397 3.926 9.93297 3.929 9.95197C3.943 10.032 4.09 10.011 4.12 9.99397L5.363 9.27597C5.39 9.25997 5.405 9.15797 5.363 9.12297C5.35 9.11197 5.304 9.10597 5.287 9.11497H5.29Z" fill="white"/><path d="M5.39 8.85095V5.23295L3.672 6.20795C3.658 6.21595 3.632 6.23395 3.603 6.24995L3.601 7.89895L1.812 4.70495C1.804 4.69095 1.765 4.67795 1.75 4.67395L0.600999 4.67895C0.299999 4.67995 0.0259994 4.93695 0.0259994 5.24895L0.0219994 9.06595C0.0219994 9.06595 0.0229994 9.06695 0.0239994 9.06795L1.81 8.05395L1.814 6.78895L3.552 9.88995C3.571 9.92495 3.619 9.92595 3.648 9.90795L5.357 8.92095C5.376 8.90995 5.392 8.88395 5.392 8.85095H5.39Z" fill="white"/><path d="M9.395 8.91898L9.393 8.22498L7.63 9.22498C7.624 9.22898 7.615 9.23398 7.605 9.24098V9.87998C7.605 9.89798 7.625 9.92898 7.638 9.93898C7.651 9.94898 7.689 9.95298 7.713 9.93898L9.349 8.99398C9.374 8.97998 9.395 8.94898 9.395 8.91898Z" fill="white"/><path d="M7.605 6.65998L10.941 4.75098C10.941 4.75098 10.938 4.75098 10.937 4.75098L6.496 4.75398C6.185 4.75398 5.92 5.01398 5.918 5.31698L5.913 6.43198C5.913 6.46498 5.95 6.50498 5.98 6.50398L6.18 6.50198C6.205 6.50198 6.23 6.46798 6.238 6.43898C6.238 6.20098 6.423 5.96898 6.674 5.96798L7.607 5.96498V6.66098L7.605 6.65998Z" fill="white"/><path d="M9.281 9.18893L8.078 9.88393C8.058 9.89493 8.044 9.93593 8.048 9.95293C8.061 10.0289 8.211 10.0099 8.235 9.99593L9.37 9.33893C9.41 9.31393 9.397 9.22493 9.374 9.19693C9.354 9.17293 9.309 9.17193 9.28 9.18893H9.281Z" fill="white"/><path d="M11.052 4.85598L7.679 6.78598C7.665 6.79398 7.641 6.80998 7.614 6.82598C7.61 6.83598 7.606 6.84698 7.606 6.85598V9.01598C7.606 9.03398 7.61 9.04998 7.615 9.06598L9.371 8.06898C9.377 8.06598 9.385 8.06398 9.394 8.06298V5.96298L10.342 5.96898C10.583 5.97098 10.762 6.20498 10.764 6.42998C10.769 6.46898 10.798 6.50398 10.833 6.50298L11.032 6.50098C11.054 6.50098 11.089 6.46198 11.089 6.43398V4.91798C11.089 4.89198 11.07 4.87198 11.052 4.85498V4.85598Z" fill="white"/><path d="M12.479 9.80905L14.411 8.71305C14.398 8.69505 14.38 8.68305 14.358 8.68305L13.678 8.67805C13.468 8.67605 13.284 8.48105 13.285 8.26705V6.33005C13.287 6.12105 13.482 5.93005 13.689 5.93005H15.207C15.46 5.93005 15.652 6.15805 15.655 6.39905C15.655 6.43505 15.689 6.46505 15.719 6.46505H15.903C15.935 6.46705 15.978 6.43705 15.978 6.39705V4.83005C15.978 4.78605 15.944 4.75305 15.898 4.75305L12.231 4.75605C11.954 4.75605 11.692 4.99505 11.692 5.28005V9.32805C11.692 9.63005 11.974 9.85505 12.249 9.85505H12.44C12.45 9.83605 12.463 9.82005 12.479 9.81005V9.80905Z" fill="white"/><path d="M15.977 8.20909C15.977 8.17109 15.937 8.14209 15.903 8.14209H15.731C15.694 8.14209 15.656 8.16809 15.655 8.21109C15.651 8.44909 15.465 8.67509 15.218 8.67709L14.696 8.68109C14.699 8.72309 14.641 8.76409 14.608 8.78209L12.738 9.84309C12.749 9.85009 12.763 9.85409 12.78 9.85409H14.019L15.936 8.74609C15.963 8.73109 15.975 8.69709 15.978 8.67009L15.976 8.20909H15.977Z" fill="white"/></svg>