<svg width="16" height="16" viewBox="0 0 16 16" fill="none" xmlns="http://www.w3.org/2000/svg"><g clip-path="url(#clip0_2080_79)"><path d="M7.912 -2.85949e-05C6.132 0.0109714 4.371 0.645972 2.989 1.76197L4.5 3.51597C5.775 2.50997 7.493 2.09997 9.087 2.41597C9.963 2.58397 10.796 2.96897 11.499 3.51597L13.01 1.76197C11.58 0.608972 9.754 -0.0270286 7.912 -2.85949e-05Z" fill="white"/><path d="M2.497 2.19397C0.905 3.68997 -0.0290001 5.86397 -9.85456e-08 8.05697C-9.85456e-08 10.333 1.039 12.569 2.764 14.048C4.358 15.442 6.526 16.152 8.643 15.973C10.937 15.802 13.114 14.577 14.459 12.716C15.769 10.947 16.282 8.61497 15.847 6.45197C15.527 4.79597 14.659 3.26197 13.425 2.12197L11.914 3.87597C13.131 5.02297 13.796 6.71697 13.671 8.38797C13.616 9.21597 13.376 10.033 12.969 10.76L9.89 7.78597L8.336 4.43697L8.334 9.50797L11.446 12.519C10.059 13.596 8.157 13.954 6.471 13.476C5.784 13.285 5.134 12.963 4.569 12.532L7.702 9.50797C7.697 7.85897 7.721 6.07997 7.702 4.43197L6.146 7.78597L3.04 10.785C2.093 9.13097 2.07 6.99297 2.982 5.32097C3.267 4.78497 3.644 4.29597 4.082 3.87597L2.571 2.12197C2.546 2.14597 2.52 2.16997 2.495 2.19397H2.497Z" fill="white"/></g><defs><clipPath id="clip0_2080_79"><rect width="16" height="16" fill="white"/></clipPath></defs></svg>