<svg width="16" height="16" viewBox="0 0 16 16" fill="none" xmlns="http://www.w3.org/2000/svg"><path d="M1.50002 1C2.61099 1.61721 3.30001 2.78821 3.30001 4.05911V4.38202C3.95523 3.73415 4.84459 3.06389 5.98404 2.67806C6.28482 1.97799 6.81136 1.38259 7.50002 1H1.50002Z" fill="white"/><path d="M10.3 6.55649V9.23838C10.6128 9.06444 10.9015 8.86463 11.1592 8.63712C11.2518 8.26226 11.4522 7.93071 11.7253 7.67673C11.6381 7.45365 11.5395 7.24722 11.4313 7.05654C10.9843 7.05291 10.5821 6.86113 10.3 6.55649Z" fill="white"/><path d="M5.70004 9.23838V6.55645C5.41796 6.86111 5.01573 7.05291 4.56865 7.05654C4.46053 7.24721 4.36187 7.45365 4.27474 7.67672C4.54777 7.9307 4.74822 8.26226 4.84076 8.63712C5.0985 8.86463 5.38725 9.06444 5.70004 9.23838Z" fill="white"/><path fill-rule="evenodd" clip-rule="evenodd" d="M5.75074 3.46504C6.39969 3.18272 7.1479 3 8 3C8.85212 3 9.60034 3.18273 10.2493 3.46507C11.3386 3.93897 12.1482 4.69347 12.7 5.33555C13.043 5.73458 13.2864 6.0902 13.4355 6.30803C13.4562 6.33831 13.4751 6.36592 13.4922 6.39062C13.6602 6.21875 14.4805 5.95703 14.8555 5.87891C15.1555 5.81641 15.7435 5.50911 16 5.36328C16 6.10856 16 7.0391 15.3787 7.60789C15.2159 8.58477 14.4706 9.58019 14.017 9.98496C13.7788 10.2457 13.436 10.4093 13.055 10.4093C12.9506 10.4093 12.8491 10.397 12.7518 10.3738C12.469 10.521 12.1992 10.7182 12 10.9778C10.6383 11.0865 10.0993 12.3712 10 13L9 12.6593L8 14L7 12.6593L6 13C5.90071 12.3712 5.36171 11.0865 4 10.9778C3.80082 10.7182 3.53102 10.521 3.24824 10.3738C3.15094 10.397 3.04941 10.4093 2.94501 10.4093C2.56399 10.4093 2.22118 10.2457 1.98298 9.98496C1.5294 9.58019 0.784132 8.58477 0.621319 7.60789C0 7.0391 0 6.10856 0 5.36328C0.25651 5.50911 0.844531 5.81641 1.14453 5.87891C1.51953 5.95703 2.33984 6.21875 2.50781 6.39062C2.52491 6.36592 2.54381 6.33831 2.56454 6.30803C2.71363 6.09019 2.95704 5.73457 3.30001 5.33553C3.85185 4.69345 4.66147 3.93893 5.75074 3.46504ZM5.70004 9.97087C6.41214 10.3171 7.2016 10.5461 8.00006 10.6834C8.79852 10.5461 9.58794 10.3171 10.3 9.97087C10.8413 9.70765 11.3379 9.37665 11.7597 8.96668C11.7659 8.90922 11.7758 8.85288 11.7891 8.79791C11.8826 8.41307 12.1471 8.09509 12.4975 7.92892C12.3177 7.31916 12.0631 6.79542 11.7557 6.35189C11.6585 6.3873 11.5537 6.40662 11.4443 6.40662C11.0049 6.40662 10.6384 6.09497 10.5536 5.68069C10.5423 5.62521 10.536 5.56789 10.5352 5.50922C10.5352 5.50532 10.5352 5.50141 10.5352 5.4975C10.5352 5.41403 10.5464 5.33317 10.5675 5.25639C10.5745 5.2308 10.5826 5.20567 10.5917 5.18103C9.97193 4.75004 9.28118 4.49935 8.60308 4.40674C8.45142 4.566 8.23733 4.66527 8.00006 4.66528C7.76279 4.66527 7.54858 4.566 7.39692 4.40674C6.71882 4.49935 6.02807 4.75004 5.40826 5.18103C5.42966 5.23867 5.44538 5.29907 5.45475 5.36155C5.4614 5.40589 5.46484 5.45128 5.46484 5.49747C5.46484 5.99957 5.05782 6.40662 4.55573 6.40662C4.44634 6.40662 4.34147 6.3873 4.24434 6.35189C3.93686 6.79542 3.68227 7.31916 3.50251 7.92892C3.90299 8.11883 4.19117 8.50702 4.24025 8.96668C4.66215 9.37665 5.15875 9.70765 5.70004 9.97087Z" fill="white"/><path d="M4.1583 15.1457C3.65358 13.8839 3.36731 12.5467 3.31053 11.1913C3.37697 11.2488 3.43528 11.3096 3.48434 11.3735L3.66025 11.6027L3.94828 11.6257C4.40902 11.6625 4.72782 11.8901 4.95784 12.1897C5.19924 12.5041 5.3225 12.8768 5.35796 13.1014L5.39888 13.3605C5.26019 13.9678 5.07412 14.5648 4.84174 15.1457L4.50002 16L4.1583 15.1457Z" fill="white"/><path d="M11.1583 15.1457C10.9259 14.5647 10.7398 13.9678 10.6011 13.3604L10.642 13.1014C10.6775 12.8768 10.8008 12.5041 11.0422 12.1897C11.2722 11.8901 11.591 11.6625 12.0517 11.6257L12.3397 11.6027L12.5157 11.3735C12.5647 11.3095 12.6231 11.2487 12.6895 11.1913C12.6327 12.5467 12.3465 13.8839 11.8417 15.1457L11.5 16L11.1583 15.1457Z" fill="white"/><path d="M12.7 4.05911V4.38206C12.0448 3.73419 11.1555 3.06391 10.016 2.67808C9.71523 1.978 9.18869 1.3826 8.50002 1H14.5C13.3891 1.61721 12.7 2.78821 12.7 4.05911Z" fill="white"/></svg>