<svg width="16" height="16" viewBox="0 0 16 16" fill="none" xmlns="http://www.w3.org/2000/svg"><path d="M8 6.58789L10.0723 5.24609C10.1618 5.54973 10.3314 5.81888 10.5566 6.0293L8.93164 7.19043L11.542 8.87988C11.5314 8.92907 11.521 8.97864 11.5146 9.0293C11.1363 9.24832 10.754 9.42116 10.3809 9.55762L8 7.85645L5.61719 9.55859C5.24433 9.42244 4.86237 9.24994 4.48438 9.03125C4.47796 8.97987 4.4668 8.92975 4.45605 8.87988L7.06738 7.19043L5.44238 6.0293C5.66766 5.81876 5.83534 5.549 5.9248 5.24512L8 6.58789Z" fill="white"/><path fill-rule="evenodd" clip-rule="evenodd" d="M8 2C8.64141 2 9.16851 2.48328 9.24023 3.10547C9.91173 3.22238 10.5116 3.43403 11.041 3.7207C11.2425 3.58165 11.4867 3.5 11.75 3.5C12.4404 3.5 13 4.05964 13 4.75C13 4.95722 12.9486 5.15216 12.8594 5.32422C13.266 5.89058 13.5618 6.52869 13.751 7.19922L15.5 6.5L15 8.5L14.4121 8.79297C14.4679 8.93469 14.5 9.08848 14.5 9.25C14.5 9.94036 13.9404 10.5 13.25 10.5C12.9489 10.5 12.6728 10.3932 12.457 10.2158C11.8566 10.5846 11.2457 10.8542 10.6572 11.0498C10.3681 11.5307 10 12.1976 10 12.5H9C9 12.5 9 13 8 13.5C7 13 7 12.5 7 12.5H6C6 12.1975 5.63096 11.5307 5.3418 11.0498C4.75339 10.8541 4.1424 10.5846 3.54199 10.2158C3.32628 10.3929 3.05088 10.5 2.75 10.5C2.05964 10.5 1.5 9.94036 1.5 9.25C1.5 9.0886 1.53122 8.9346 1.58691 8.79297L1 8.5L0.5 6.5L2.24805 7.19922C2.43721 6.52878 2.73319 5.89054 3.13965 5.32422C3.05054 5.15225 3 4.95706 3 4.75C3 4.05964 3.55964 3.5 4.25 3.5C4.51305 3.5 4.75664 3.58193 4.95801 3.7207C5.48733 3.43396 6.08736 3.22247 6.75879 3.10547C6.83046 2.48322 7.35855 2 8 2ZM8.94238 4.06836C8.71321 4.33204 8.37679 4.5 8 4.5C7.62298 4.5 7.28583 4.33232 7.05664 4.06836C6.46078 4.15826 5.93896 4.33415 5.48535 4.57227C5.49364 4.63041 5.5 4.68956 5.5 4.75C5.5 5.44036 4.94036 6 4.25 6C4.1359 6 4.02592 5.98274 3.9209 5.9541C3.49284 6.5666 3.20976 7.28616 3.08105 8.0459C3.61054 8.19114 4 8.6744 4 9.25C4 9.27396 3.99742 9.29766 3.99609 9.32129C4.35913 9.54975 4.72808 9.7355 5.0918 9.88867C6.18721 10.3502 7.24192 10.5 8 10.5C8.74888 10.5 9.78717 10.3538 10.8682 9.90527C11.2446 9.74898 11.6267 9.55709 12.0029 9.32031C12.0016 9.29702 12 9.27361 12 9.25C12 9.22573 12.0016 9.20166 12.0029 9.17773C12.0339 8.63482 12.4107 8.1856 12.917 8.0459C12.7884 7.28605 12.5061 6.56665 12.0781 5.9541C11.9734 5.98258 11.8638 6 11.75 6C11.4252 6 11.1305 5.87494 10.9082 5.67188C10.8992 5.66363 10.8896 5.65597 10.8809 5.64746C10.856 5.62341 10.8323 5.59829 10.8096 5.57227L10.8086 5.57031C10.7871 5.5457 10.7666 5.52039 10.7471 5.49414C10.7432 5.48891 10.7391 5.48381 10.7354 5.47852C10.6928 5.41937 10.6559 5.35629 10.624 5.29004C10.622 5.28584 10.6201 5.28157 10.6182 5.27734C10.6066 5.25266 10.5959 5.22768 10.5859 5.20215C10.5807 5.18853 10.5751 5.17498 10.5703 5.16113C10.5616 5.13611 10.554 5.11068 10.5469 5.08496C10.5457 5.0807 10.5441 5.07654 10.543 5.07227L10.5254 5.00195C10.5087 4.92057 10.5 4.83631 10.5 4.75C10.5 4.68961 10.5054 4.63037 10.5137 4.57227C10.06 4.33423 9.53831 4.15817 8.94238 4.06836Z" fill="white"/></svg>