<svg width="16" height="16" viewBox="0 0 16 16" fill="none" xmlns="http://www.w3.org/2000/svg"><path d="M15.9731 7.36048C15.8709 6.05651 15.4418 4.78207 14.7385 3.67846C14.5722 3.41728 14.0502 2.6523 13.2472 1.9494C13.1562 1.86968 13.0459 1.81513 12.9269 1.79277C11.5407 1.53113 8.78726 1.6955 7.75201 1.94204C7.71408 1.95113 7.69387 1.89895 7.72792 1.87986C8.24508 1.59132 9.54742 0.952872 11.1422 0.840788C11.2478 0.833328 11.2731 0.689334 11.1759 0.647335C8.49166 -0.514552 6.06034 0.174708 5.15998 0.515519C5.05158 0.556519 4.95608 0.625427 4.88167 0.714334C3.36725 2.5223 2.90194 5.25216 3.16844 7.08121C3.17435 7.12167 3.11629 7.13539 3.1032 7.09666C2.30634 4.74499 2.97318 2.59066 3.35753 1.70641C3.3986 1.61186 3.28756 1.52341 3.20497 1.58504C1.40561 2.92766 0.211119 5.04916 0.0291199 7.29112C-0.299077 11.3347 2.24209 13.6095 2.86914 14.1281C2.93938 14.1861 3.02052 14.229 3.10774 14.255C4.31886 14.6157 6.69929 14.609 8.15509 14.1226C8.19423 14.1095 8.21795 14.1652 8.18139 14.1843C6.75408 14.9336 5.4889 15.1143 4.86222 15.1555C4.75637 15.1625 4.73165 15.3069 4.82905 15.3491C5.33662 15.5688 6.31549 15.9162 7.5714 15.9909C7.57322 15.9891 7.57458 15.9877 7.57557 15.9869C7.5774 15.987 7.5793 15.9872 7.5813 15.9872C7.5823 15.9881 7.58366 15.9892 7.5853 15.991C8.16748 16.0186 9.46282 16.0185 10.9451 15.4404C11.0643 15.3939 11.1681 15.3152 11.2442 15.2123C11.4491 14.935 11.8081 14.409 11.9807 14.073C12.5998 12.8681 12.9149 11.4788 12.9646 10.2635C12.9868 9.72104 12.9523 9.28903 12.9118 8.99062C12.9062 8.94933 12.9658 8.93671 12.9774 8.97663C13.2396 9.87397 13.6545 11.9789 12.688 14.2497C12.6475 14.3447 12.7596 14.4314 12.842 14.3694C13.4327 13.9237 14.6884 12.8205 15.438 10.9318C16.1338 9.17929 15.9976 7.67312 15.9732 7.36057L15.9731 7.36048ZM10.8772 4.59717C10.8048 4.58098 10.7635 4.67689 10.8248 4.71835C12.0034 5.51615 12.7909 7.06167 12.8553 7.21903C12.9654 7.48811 13.0571 7.7675 13.1287 8.05419C13.1366 8.08552 13.0942 8.10316 13.0773 8.07563C12.7012 7.46184 12.1472 6.94885 11.531 6.61376C11.4692 6.58022 11.4037 6.65158 11.4427 6.71013C11.7358 7.14994 12.3329 8.21989 12.3329 9.63891C12.3329 9.74743 12.3297 9.85527 12.3234 9.96219C12.3224 9.98051 12.3213 9.99892 12.3201 10.0171C12.0879 13.6023 9.23145 14.5048 8.25018 14.6986C8.21605 14.7053 8.20259 14.6564 8.23535 14.6445C10.4518 13.8376 11.1869 11.858 11.413 10.9014C11.4305 10.8271 11.3307 10.786 11.2904 10.8507C10.3239 12.4039 8.53825 12.9552 7.9678 13.0966C7.93649 13.1043 7.919 13.062 7.94667 13.0451C8.47478 12.7223 8.9284 12.2677 9.25889 11.755C9.31324 11.6706 9.36424 11.5848 9.41159 11.4976C9.44557 11.4351 9.37245 11.3696 9.31385 11.41C8.45692 12.0015 7.47681 12.2973 6.31948 12.2973C2.84015 12.2973 1.67565 9.64294 1.32038 8.39503C1.30875 8.35412 1.36781 8.33374 1.3838 8.3732C2.25926 10.5309 4.26334 11.1988 5.10146 11.3886C5.17461 11.4052 5.21604 11.3072 5.15289 11.2668C3.53834 10.2306 3.0077 8.51244 2.86459 7.93191C2.85687 7.90058 2.89921 7.88316 2.91603 7.91084C3.41177 8.7234 4.10615 9.18051 4.46978 9.37937C4.53139 9.41298 4.59708 9.34135 4.55801 9.28302C4.01474 8.47206 3.66237 7.44084 3.66237 6.35096C3.66237 2.33839 6.76335 1.4405 7.78812 1.27605C7.82202 1.27059 7.8341 1.31896 7.80165 1.33041C5.50981 2.14267 4.78944 4.20181 4.58028 5.09162C4.56282 5.16588 4.66268 5.20716 4.70294 5.14234C5.66781 3.5881 7.45327 3.03666 8.02618 2.89411C8.05749 2.88629 8.0749 2.92875 8.04731 2.94556C7.23938 3.43883 6.78189 4.12936 6.58181 4.49408C6.54764 4.55635 6.62088 4.62181 6.6793 4.58135C7.53687 3.98881 8.5175 3.69246 9.6758 3.69246C13.4936 3.69246 14.5135 6.73158 14.7298 7.76841C14.7369 7.80263 14.6877 7.81639 14.6757 7.78347C13.8332 5.4797 11.7253 4.78671 10.877 4.59717H10.8772Z" fill="white"/></svg>