<svg width="24" height="24" viewBox="0 0 24 24" fill="none" xmlns="http://www.w3.org/2000/svg"><path fill-rule="evenodd" clip-rule="evenodd" d="M5.74239 2C4.39477 2 3.21252 2.89861 2.85184 4.19707L1.74073 8.19707C1.26798 9.89897 2.35561 11.5848 4 11.9342V19C4 20.6569 5.34314 22 7 22H17C18.6569 22 20 20.6569 20 19V11.9342C21.6444 11.5848 22.732 9.89897 22.2593 8.19707L21.1482 4.19707C20.7875 2.89861 19.6052 2 18.2576 2H5.74239ZM19.3687 10C20.03 10 20.5092 9.36955 20.3322 8.73236L19.2211 4.73236C19.1009 4.29954 18.7068 4 18.2576 4H5.74239C5.29318 4 4.8991 4.29954 4.77887 4.73236L3.66776 8.73236C3.49076 9.36955 3.96996 10 4.63128 10H5.24774L5.48448 9.49694C6.20505 7.96573 8.38318 7.96573 9.10375 9.49694L9.34048 10H9.95363L10.1904 9.49694C10.9109 7.96573 13.0891 7.96573 13.8096 9.49694L14.0464 10H14.6595L14.8962 9.49694C15.6168 7.96573 17.7949 7.96573 18.5155 9.49694L18.7522 10H19.3687ZM18 11.8532C17.5425 11.6674 17.1606 11.3148 16.9426 10.8516L16.7059 10.3485L16.4691 10.8516C16.1393 11.5526 15.4342 12 14.6595 12H14.0464C13.2716 12 12.5666 11.5526 12.2367 10.8516L12 10.3485L11.7633 10.8516C11.4334 11.5526 10.7284 12 9.95363 12H9.34048C8.56576 12 7.86072 11.5526 7.53085 10.8516L7.29411 10.3485L7.05738 10.8516C6.83938 11.3148 6.45753 11.6674 6 11.8532V19C6 19.5523 6.44771 20 7 20H8V17C8 15.3431 9.34314 14 11 14H13C14.6569 14 16 15.3431 16 17V20H17C17.5523 20 18 19.5523 18 19V11.8532ZM14 17V20H10V17C10 16.4477 10.4477 16 11 16H13C13.5523 16 14 16.4477 14 17Z" fill="#B3B4D0"/></svg>