<svg width="16" height="16" viewBox="0 0 16 16" fill="none" xmlns="http://www.w3.org/2000/svg"><g clip-path="url(#clip0_2128_88)"><path d="M7.77832 4.99609C7.86257 5.01921 7.94407 5.04532 8.01855 5.0791C8.03344 5.08585 8.04821 5.09317 8.0625 5.10059C8.20556 5.17496 8.31719 5.28445 8.36035 5.4707C8.41382 5.74343 8.40898 6.23869 8.40625 6.59863C8.40575 6.66403 8.40529 6.72497 8.40527 6.7793L8.4082 13.0566C8.40833 13.4658 8.42328 13.8786 8.34473 14.2822C8.30246 14.498 8.0635 14.7078 7.8457 14.7197C7.8372 14.7221 7.82789 14.7229 7.81836 14.7236C7.78979 14.7257 7.75663 14.7212 7.72168 14.7109C7.71008 14.7075 7.69851 14.7027 7.68652 14.6982C7.64764 14.6837 7.60692 14.6639 7.56738 14.6416C7.47202 14.5878 7.38158 14.5197 7.33496 14.4727C7.19689 14.336 7.19811 13.9863 7.19336 13.8018C7.18996 13.7625 7.18748 13.7183 7.18555 13.6709C7.17377 13.382 7.18631 12.9646 7.18652 12.7109L7.18555 7.63867C7.18519 7.09422 7.1813 6.54324 7.19043 5.99902C7.19291 5.85259 7.20752 5.64964 7.24414 5.49219C7.2514 5.461 7.25945 5.43115 7.26855 5.4043C7.27878 5.36496 7.29481 5.32816 7.31543 5.29395C7.32121 5.28438 7.32751 5.27478 7.33398 5.26562C7.36098 5.22742 7.39392 5.193 7.43066 5.16211C7.53017 5.07857 7.65871 5.0221 7.77832 4.99609Z" fill="white"/><path fill-rule="evenodd" clip-rule="evenodd" d="M13 0C14.6569 0 16 1.34315 16 3V13C16 14.6569 14.6569 16 13 16H3C1.34315 16 0 14.6569 0 13V3C0 1.34315 1.34315 0 3 0H13ZM4.88379 4.73633C4.87528 4.73888 4.86755 4.74454 4.85352 4.75781C4.83178 4.81312 4.84586 4.90873 4.84863 4.97559C4.91593 4.9743 4.97586 4.97321 5.03027 4.97266C5.06658 4.97229 5.10117 4.97289 5.13379 4.97363C5.31288 4.97775 5.4492 5.00292 5.67871 5.10254C5.9028 5.24856 5.97297 5.38012 5.99219 5.60254C5.99597 5.64651 5.99847 5.69413 5.99902 5.74609C6.00618 5.79742 6.0099 5.86458 6.01172 5.93359C6.01411 6.0254 6.01361 6.12162 6.01367 6.19238L6.01562 13.3262C6.01601 13.3954 6.0156 13.4992 6.01465 13.6084C6.01376 13.6832 6.01216 13.7607 6.00879 13.832C6.00486 13.915 6.00032 13.9901 5.99023 14.042C5.96821 14.4961 5.73806 14.7234 5.27344 14.752L5.1709 14.7549C5.07204 14.7663 4.95003 14.7628 4.84863 14.7627C4.84922 14.8387 4.84786 14.9227 4.85059 14.998L9.94238 14.9961C10.1525 14.9961 10.438 14.9882 10.6436 15C10.6971 14.996 10.7046 15.0045 10.7383 14.9766C10.7615 14.9299 10.7505 14.8246 10.75 14.7627C10.659 14.7628 10.534 14.7664 10.4473 14.7529C10.1792 14.7479 9.94514 14.6797 9.74609 14.4932C9.66233 14.4267 9.6274 14.3076 9.61328 14.2061C9.60359 14.1284 9.59676 14.0501 9.59082 13.9717C9.58028 13.8327 9.57461 13.6927 9.57227 13.5527C9.57129 13.4923 9.57133 13.4315 9.57129 13.3711C9.57125 13.335 9.57109 13.2988 9.57129 13.2627C9.57177 13.1798 9.5722 13.097 9.57324 13.0146C9.58277 12.2627 9.56072 11.5004 9.58301 10.749C9.5832 10.7426 9.58379 10.7359 9.58398 10.7295C9.57301 10.6159 9.58041 10.331 9.58008 10.207L9.57812 9.1123V7.22754C9.57794 7.05641 9.5731 6.80998 9.57324 6.54883C9.57332 6.37472 9.57578 6.19398 9.58301 6.02441C9.59388 5.76994 9.61643 5.5404 9.65918 5.39648C9.68655 5.31701 9.71963 5.26695 9.77441 5.2041C9.81998 5.16433 9.86527 5.12943 9.91211 5.10059C9.91713 5.0975 9.92267 5.09476 9.92773 5.0918C9.9462 5.08097 9.96542 5.0707 9.98438 5.06152C9.98661 5.06044 9.98897 5.05867 9.99121 5.05762C10.0493 5.03027 10.1104 5.01037 10.1758 4.99805C10.2202 4.98967 10.267 4.98501 10.3164 4.9834C10.345 4.97699 10.4005 4.97403 10.4629 4.97266L10.748 4.97363C10.7491 4.89536 10.748 4.81385 10.748 4.73535L7.32324 4.73438C7.22501 4.73448 7.12626 4.735 7.02734 4.73535C6.90898 4.73577 6.78991 4.73576 6.6709 4.73633C6.64732 4.73642 6.62321 4.73622 6.59961 4.73633C6.44369 4.73708 6.28709 4.73877 6.13086 4.73926C5.98108 4.73973 5.831 4.73949 5.68164 4.73926C5.48259 4.73895 5.2838 4.73783 5.08691 4.73535L4.93945 4.7334L4.88379 4.73633ZM11.3711 4.98145L11.3623 5.60059L10.7432 5.5957C10.6736 5.59515 10.5681 5.59272 10.4766 5.59473C10.4641 5.595 10.4521 5.5953 10.4424 5.5957C10.4356 5.59599 10.4294 5.59641 10.4248 5.59668L10.3955 5.60352L10.3369 5.60547C10.2846 5.60718 10.2629 5.61637 10.2432 5.62793C10.2206 5.7497 10.2025 5.98209 10.1973 6.29492C10.1914 6.64286 10.1999 6.97695 10.2002 7.22754V9.1123L10.2021 10.2051L10.2002 10.4756C10.2 10.5237 10.1995 10.5681 10.2002 10.6055C10.2005 10.6241 10.2016 10.6403 10.2021 10.6523C10.2027 10.6643 10.2031 10.6699 10.2031 10.6699L10.207 10.709L10.2061 10.749C10.1826 11.5123 10.2065 12.2153 10.1963 13.0225C10.1948 13.142 10.1932 13.258 10.1934 13.3711C10.9238 12.5494 11.5924 11.6435 11.9639 10.8877L11.4668 10.0088C10.7229 9.19564 10.543 8.71004 10.2295 7.70801C10.491 7.32179 10.8271 6.88628 11.1064 6.50391C11.2574 6.22037 11.4048 5.91222 11.5488 5.62305C11.723 4.96769 11.7117 4.8423 11.4346 4.24023L11.3711 4.19922V4.98145ZM5.39062 6.13672C5.11767 6.43632 4.81978 6.75641 4.58301 7.07324L4.5459 7.1543C4.23826 7.88408 4.44309 8.5894 4.57715 9.36816C4.2475 9.90147 3.92069 10.4372 3.59766 10.9746C3.75815 11.6628 4.50512 12.5385 5.39355 13.3213L5.3916 6.19336L5.39062 6.13672ZM6.52246 1.02148C6.1499 1.75718 6.96188 2.87269 6.78027 4.11426C6.86131 4.11391 6.94317 4.11357 7.02539 4.11328C7.12434 4.11293 7.2235 4.11241 7.32227 4.1123L10.0098 4.11328C9.99824 3.8377 10.0067 3.56903 10.0039 3.37207C9.76175 2.9736 9.47336 2.68692 9.1582 2.34863C9.06034 2.30937 8.66482 2.07681 8.54883 2.01172C7.96769 1.83897 7.68043 1.71864 7.20703 1.33984C6.96869 1.14911 6.79309 0.93001 6.52246 1.02148Z" fill="white"/></g><defs><clipPath id="clip0_2128_88"><rect width="16" height="16" fill="white"/></clipPath></defs></svg>