<svg width="16" height="16" viewBox="0 0 16 16" fill="none" xmlns="http://www.w3.org/2000/svg"><path fill-rule="evenodd" clip-rule="evenodd" d="M15.3125 11.5136C15.3125 11.5136 16.8938 14.3326 12.7466 14.3218C11.0608 14.3164 9.45205 13.9326 8.088 13.4488C5.73118 12.6191 4.10863 11.492 4.10863 11.492L4.14988 11.5082C4.12788 11.4947 4.11413 11.4839 4.11138 11.4812C5.05466 11.8542 5.92369 12.1596 6.72671 12.4082V11.8434C4.53764 11.1163 2.87934 10.0704 1.75455 9.19199L1.75671 9.18812C1.75858 9.18494 1.76006 9.18243 1.76006 9.17848C1.24579 8.77577 0.841526 8.4082 0.552767 8.12441C0.184256 7.76224 0 7.53251 0 7.53251L0.605019 7.64873C-0.169443 5.95144 1.51858 5.2378 1.5926 5.2065L1.59505 5.20546V4.61356L8 1L14.405 4.65139V10.1596C15.417 10.8271 16 11.7758 16 11.7758L15.3125 11.5136ZM9.87281 14.4731L9.86456 14.4785C9.86731 14.4785 9.87006 14.4785 9.87006 14.4812L8 15.538L1.5978 11.9028V9.71902C1.76005 9.84876 1.98281 10.0109 2.28532 10.1947V11.4947L6.72396 14.0272V13.1272C8.44813 14.1699 9.76805 14.4508 9.8669 14.4718L9.87281 14.4731ZM12.6146 12.9272L14.405 11.9191C14.405 11.9191 15.1007 12.7704 14.0007 13.1596C13.2664 13.4191 11.5916 13.5569 9.27604 13.0677V7.50279H12.0399L13.0602 5.26762H2.93709L3.95737 7.50279H6.72946V11.7974C5.90444 11.3569 3.1186 9.7893 1.88656 8.12982C0.946029 6.85954 1.57305 6.46764 1.60055 6.45142C1.60055 6.45142 1.74355 7.10008 2.28532 7.65414V5.00816L8 1.7811L13.7147 5.03789V11.5245L11.2754 12.9029C11.4074 12.9488 12.0729 12.9947 12.6146 12.9272Z" fill="white"/></svg>