<svg width="16" height="16" viewBox="0 0 16 16" fill="none" xmlns="http://www.w3.org/2000/svg"><path d="M0 8.25705V2.33033C0 2.14206 0.236432 2.05809 0.355192 2.20418L10.4015 14.5628C10.5078 14.6935 10.4148 14.8889 10.2463 14.8889H5.4285C5.36829 14.8889 5.31128 14.8618 5.27331 14.8151L0.0448078 8.3832C0.0158229 8.34755 0 8.303 0 8.25705Z" fill="white"/><path d="M15.6437 1.55742L8.92597 9.97155C8.82139 10.1025 8.91466 10.2963 9.08227 10.2963H13.9181C13.9706 10.2963 14.021 10.2757 14.0584 10.2389L15.9403 8.38685C15.9785 8.34925 16 8.2979 16 8.2443V1.68221C16 1.49305 15.7617 1.4096 15.6437 1.55742Z" fill="white"/></svg>